<svg width="186" height="123" viewBox="0 0 186 123" fill="none" xmlns="http://www.w3.org/2000/svg">
<path d="M6.7766 55.1622C6.75329 55.1544 6.73302 55.1394 6.71862 55.1193C6.70422 55.0992 6.69641 55.075 6.69629 55.0501C6.69629 41.164 6.69629 27.263 6.69629 13.347C6.69629 10.9348 8.18207 8.15904 11.106 9.03283C24.2923 12.9811 37.84 13.7478 51.2421 11.9704C62.5135 10.4742 73.7949 7.67359 84.9558 5.09204C98.5236 1.95037 112.425 -0.280169 126.224 0.0285221C140.818 0.352149 155.302 3.59091 168.9 8.85857C171.194 9.7473 173.352 10.5539 173.352 13.4815C173.352 25.9668 173.348 38.4721 173.34 50.9973C173.34 51.0278 173.328 51.0571 173.308 51.0793C173.287 51.1015 173.259 51.1149 173.229 51.1168C172.667 51.1542 172.077 50.9376 171.668 50.8654C165.874 49.8381 160.069 49.278 154.253 49.185C154.119 49.1834 154.053 49.1161 154.055 48.9834C154.063 46.4956 154.203 44.1331 154.474 41.8959C154.534 41.408 154.683 40.8977 154.921 40.3649C155.69 38.6472 156.243 36.8598 156.58 35.0027C156.705 34.3056 156.462 33.8028 155.651 34.0069C153.515 34.5421 151.332 35.6425 149.063 35.9263C145.439 36.3827 141.805 36.5503 138.163 36.4291C135.093 36.3246 132.787 36.4241 130.066 36.7552C127.052 37.1237 123.882 36.6333 120.793 36.5461C116.81 36.4341 112.305 36.2001 108.467 35.7171C106.598 35.4806 104.886 34.816 103.106 34.1836C102.61 34.0069 102.075 34.0766 101.555 34.0642C101.516 34.0626 101.476 34.0688 101.44 34.0825C101.403 34.0962 101.37 34.1171 101.342 34.1438C100.579 34.8633 102.105 37.171 102.343 38.112C102.715 39.5857 102.795 41.2213 102.906 42.9564C102.968 43.9472 103.098 45.1081 103.297 46.4392C103.607 48.5104 103.758 50.5841 103.751 52.6603C103.751 52.7765 103.693 52.8412 103.576 52.8544L77.0977 55.9887C77.0633 55.9928 77.0284 55.9898 76.9952 55.9798C76.962 55.9698 76.9313 55.9529 76.905 55.9304C76.8788 55.9079 76.8576 55.8802 76.8428 55.8491C76.828 55.8179 76.82 55.7841 76.8192 55.7497C76.7062 51.0795 76.7238 46.4118 77.2082 41.7491C77.255 41.301 77.3839 40.8471 77.5947 40.3873C78.443 38.5551 79.0319 36.6241 79.3616 34.5944C79.3777 34.4999 79.3694 34.403 79.3373 34.3128C79.3052 34.2227 79.2505 34.1422 79.1783 34.0791C78.9357 33.8683 78.6362 33.8127 78.2798 33.9123C76.3423 34.4475 74.3947 35.406 72.4672 35.747C70.2402 36.142 68.4106 36.3287 66.9784 36.3071C62.8038 36.2424 58.6326 36.3179 54.4647 36.5337C53.2474 36.5959 51.1819 36.9195 49.6133 36.7976C47.8665 36.6631 46.1172 36.5528 44.3654 36.4665C43.62 36.4291 42.6236 36.6407 42.0212 36.5611C38.8715 36.1354 35.2599 36.1926 31.3748 35.6698C29.3846 35.401 27.5801 34.7214 25.6952 34.0716C25.4911 34.0019 24.9942 33.9845 24.2044 34.0193C24.1241 34.0227 24.058 34.055 24.0061 34.1164C23.4414 34.801 24.4554 36.4366 24.7541 37.166C25.773 39.653 25.4944 42.7175 25.8985 45.3513C26.2833 47.859 26.4908 50.3833 26.5209 52.9242C26.5435 54.9232 26.2097 56.6957 25.6952 58.5752C25.6551 58.7212 25.5589 58.7876 25.4066 58.7743C19.0192 58.2043 12.8703 57.2931 6.7766 55.1622Z" fill="white"/>
<path d="M0.203843 71.7584C0.14638 71.7417 0.095951 71.7069 0.0601037 71.6595C0.0242564 71.612 0.00493069 71.5545 0.00503808 71.4954L0 55.9374C0.000101062 55.9119 0.00691626 55.8869 0.0197683 55.8649C0.0326204 55.8429 0.0510645 55.8247 0.0732365 55.812C0.0954085 55.7993 0.120531 55.7926 0.146104 55.7926C0.171677 55.7927 0.196795 55.7994 0.218941 55.8121C4.78067 58.3963 9.6469 60.1988 14.8176 61.2194C25.2136 63.2691 35.8613 63.4194 46.4184 63.0536C53.8976 62.7947 63.0203 62.1039 73.7862 60.9814C93.2041 58.9568 112.597 56.5713 132.093 55.3962C138.153 55.0303 144.178 55.0128 150.245 55.098C155.718 55.1732 161.158 55.6467 166.565 56.5187C173.259 57.5962 179.77 59.4955 185.56 63.0937C185.741 63.2073 185.843 63.2766 185.865 63.3017C186.09 63.5639 186.034 63.6516 185.699 63.5648C173.225 60.3391 160.535 58.8749 147.63 59.1723C116.691 59.8839 87.2424 69.2678 56.8773 73.8582C37.6456 76.7674 18.8115 76.9453 0.203843 71.7584Z" fill="#FFB703"/>
<path d="M56.8649 92.9565C54.6136 94.0824 54.3651 96.8961 55.282 98.9782C56.0018 100.611 58.2736 101.118 59.8795 100.923C59.9186 100.918 59.9546 100.9 59.9805 100.871C60.0065 100.843 60.0207 100.806 60.0204 100.768V98.5813C60.0204 98.5482 60.0069 98.5164 59.9829 98.493C59.9589 98.4696 59.9263 98.4565 59.8923 98.4565H57.6051C57.5589 98.4565 57.5146 98.4386 57.482 98.4067C57.4493 98.3749 57.431 98.3317 57.431 98.2867L57.4258 96.262C57.4255 96.2236 57.433 96.1856 57.448 96.1502C57.463 96.1147 57.4851 96.0825 57.513 96.0555C57.5409 96.0285 57.5741 96.0073 57.6106 95.993C57.6471 95.9787 57.6862 95.9717 57.7255 95.9724L63.1067 96.0423C63.1421 96.0423 63.176 96.0562 63.2009 96.081C63.2259 96.1058 63.2399 96.1395 63.2399 96.1746L63.2143 102.216C63.2126 102.308 63.1691 102.373 63.0837 102.411C60.3483 103.587 56.3936 103.981 53.8503 102.206C51.1046 100.294 50.7025 95.9599 52.1829 93.2211C54.2396 89.4114 59.5978 89.3814 63.1119 91.1814C63.1853 91.218 63.222 91.2763 63.222 91.3562V94.0799C63.2224 94.1205 63.2107 94.1603 63.1884 94.1946C63.1661 94.2288 63.134 94.256 63.0961 94.2731C63.0581 94.2902 63.0157 94.2963 62.974 94.2909C62.9324 94.2854 62.8931 94.2685 62.8609 94.2422C61.1781 92.8566 58.9447 91.9129 56.8649 92.9565Z" fill="white"/>
<path d="M77.3687 97.7054C77.3634 99.2254 76.7496 100.681 75.6625 101.752C74.5754 102.823 73.1039 103.422 71.5718 103.416L70.4841 103.413C68.952 103.407 67.4848 102.798 66.4053 101.72C65.3257 100.641 64.7222 99.1816 64.7276 97.6617L64.7344 95.7354C64.7397 94.2154 65.3535 92.7599 66.4406 91.6889C67.5277 90.6178 68.9991 90.0191 70.5312 90.0244L71.619 90.0282C73.151 90.0335 74.6182 90.6424 75.6978 91.7209C76.7774 92.7994 77.3809 94.2592 77.3755 95.7791L77.3687 97.7054ZM71.0592 101.057C71.8673 101.057 72.6424 100.601 73.2139 99.7899C73.7853 98.9785 74.1064 97.878 74.1064 96.7305C74.1064 95.583 73.7853 94.4825 73.2139 93.6711C72.6424 92.8597 71.8673 92.4039 71.0592 92.4039C70.251 92.4039 69.4759 92.8597 68.9045 93.6711C68.333 94.4825 68.012 95.583 68.012 96.7305C68.012 97.878 68.333 98.9785 68.9045 99.7899C69.4759 100.601 70.251 101.057 71.0592 101.057Z" fill="white"/>
<path d="M112.862 102.36C107.281 105.019 101.602 102.556 101.942 96.1338C102.249 90.3724 108.216 88.6713 112.942 91.0926C113.025 91.1356 113.067 91.2027 113.067 91.2937V94.1396C113.067 94.165 113.06 94.1899 113.046 94.2115C113.032 94.233 113.012 94.2505 112.988 94.2618C112.964 94.2732 112.938 94.278 112.911 94.2757C112.885 94.2734 112.86 94.2641 112.838 94.2489C111.664 93.3946 110.531 92.5205 108.972 92.5255C107.214 92.5329 106 93.6455 105.592 95.2547C104.358 100.127 108.811 102.819 112.698 99.2429C112.73 99.2125 112.771 99.1921 112.816 99.1843C112.86 99.1764 112.906 99.1814 112.948 99.1987C112.989 99.2159 113.025 99.2447 113.05 99.2813C113.075 99.3179 113.088 99.3607 113.088 99.4043L113.057 102.062C113.056 102.123 113.037 102.184 113.003 102.237C112.968 102.289 112.92 102.332 112.862 102.36Z" fill="white"/>
<path d="M115.94 96.9042C114.136 95.4988 114.373 92.6981 116.043 91.2952C118.168 89.5104 121.787 89.8449 124.343 90.8384C124.379 90.8524 124.41 90.8768 124.432 90.9085C124.453 90.9401 124.465 90.9774 124.465 91.0156V93.6416C124.465 93.6704 124.458 93.6987 124.443 93.7234C124.428 93.7481 124.406 93.7682 124.381 93.7816C124.355 93.795 124.327 93.8011 124.298 93.7993C124.269 93.7976 124.241 93.7879 124.217 93.7715C122.788 92.8029 119.409 91.6547 118.083 93.3696C118.033 93.4325 118.005 93.5099 118.005 93.5892C118.008 95.7784 124.017 94.6202 124.868 98.1798C125.559 101.08 123.259 103.07 120.538 103.352C118.511 103.563 116.574 103.255 114.729 102.426C114.683 102.406 114.645 102.373 114.618 102.332C114.591 102.29 114.576 102.241 114.576 102.191L114.584 99.3006C114.584 99.2733 114.593 99.2468 114.609 99.2247C114.625 99.2025 114.647 99.1857 114.673 99.1765C114.699 99.1673 114.727 99.1661 114.753 99.1731C114.78 99.1801 114.804 99.195 114.821 99.2157C114.865 99.2673 114.92 99.2848 114.987 99.2682C114.994 99.2659 115.003 99.2657 115.01 99.2674C115.018 99.2692 115.024 99.2729 115.029 99.2781C116.689 100.661 118.52 101.182 120.521 100.841C121.91 100.606 121.99 98.8663 120.568 98.5268C118.673 98.075 117.192 97.8827 115.94 96.9042Z" fill="white"/>
<path d="M78.8694 103.233L78.8643 90.1745C78.8643 90.1347 78.8799 90.0965 78.9079 90.0684C78.9358 90.0402 78.9737 90.0244 79.0132 90.0244H82.0106C82.0501 90.0244 82.088 90.0402 82.116 90.0684C82.1439 90.0965 82.1596 90.1347 82.1596 90.1745L82.1339 100.674C82.1339 100.714 82.1496 100.752 82.1776 100.78C82.2055 100.809 82.2434 100.824 82.2829 100.824H87.6433C87.6628 100.824 87.6822 100.828 87.7003 100.836C87.7184 100.843 87.7348 100.854 87.7486 100.868C87.7625 100.882 87.7734 100.899 87.7809 100.917C87.7884 100.935 87.7923 100.955 87.7923 100.974V103.266C87.7923 103.286 87.7884 103.306 87.7809 103.324C87.7734 103.342 87.7625 103.359 87.7486 103.372C87.7348 103.386 87.7184 103.397 87.7003 103.405C87.6822 103.413 87.6628 103.416 87.6433 103.416L79.0184 103.383C78.9988 103.383 78.9794 103.379 78.9614 103.371C78.9433 103.364 78.9269 103.353 78.913 103.339C78.8992 103.325 78.8882 103.308 78.8807 103.29C78.8732 103.272 78.8694 103.252 78.8694 103.233Z" fill="white"/>
<path d="M89.2803 90.1978C89.2803 90.1594 89.2954 90.1225 89.3223 90.0954C89.3493 90.0682 89.3858 90.053 89.4239 90.053L94.6424 90.0245C95.4966 90.0199 96.3432 90.1787 97.134 90.4917C97.9248 90.8048 98.6442 91.266 99.2512 91.849C99.8582 92.432 100.341 93.1254 100.672 93.8896C101.002 94.6538 101.175 95.4738 101.179 96.3029L101.184 97.0424C101.193 98.7162 100.516 100.325 99.3025 101.515C98.0892 102.705 96.4388 103.379 94.7142 103.388L89.4931 103.416C89.474 103.417 89.4551 103.413 89.4374 103.406C89.4197 103.399 89.4035 103.388 89.3899 103.375C89.3763 103.361 89.3655 103.345 89.3581 103.328C89.3507 103.31 89.3469 103.291 89.347 103.272L89.2803 90.1978ZM92.6499 92.7861V100.688C92.6499 100.733 92.6674 100.776 92.6987 100.807C92.73 100.839 92.7724 100.856 92.8166 100.856H94.1808C95.1309 100.856 96.0422 100.455 96.714 99.7393C97.3858 99.0241 97.7633 98.0539 97.7633 97.0424V96.4321C97.7633 95.4206 97.3858 94.4505 96.714 93.7352C96.0422 93.0199 95.1309 92.6181 94.1808 92.6181H92.8166C92.7724 92.6181 92.73 92.6358 92.6987 92.6673C92.6674 92.6988 92.6499 92.7416 92.6499 92.7861Z" fill="white"/>
<path d="M52.4312 115.452C52.3451 115.527 52.2761 115.62 52.2293 115.724C52.1825 115.829 52.159 115.942 52.1605 116.057L52.2427 122.534C52.2443 122.685 52.171 122.76 52.0227 122.76H50.7127C50.6321 122.76 50.5918 122.719 50.5918 122.637V109.491C50.5918 109.409 50.6321 109.368 50.7127 109.368H52.0348C52.0688 109.368 52.1014 109.382 52.1254 109.406C52.1494 109.431 52.1629 109.464 52.1629 109.498L52.1798 114.157C52.1797 114.178 52.1855 114.198 52.1965 114.215C52.2074 114.233 52.2231 114.246 52.2416 114.255C52.26 114.263 52.2805 114.266 52.3004 114.262C52.3204 114.259 52.339 114.25 52.3539 114.236C53.9999 112.722 56.6515 112.427 57.645 114.622C57.8593 115.097 57.964 115.871 57.9592 116.944C57.9511 118.836 57.9753 120.728 58.0317 122.62C58.0324 122.638 58.0293 122.656 58.0228 122.673C58.0163 122.69 58.0064 122.706 57.9938 122.719C57.9812 122.732 57.966 122.742 57.9493 122.749C57.9325 122.756 57.9145 122.76 57.8963 122.76H56.5669C56.467 122.76 56.4163 122.709 56.4147 122.608C56.3808 120.323 56.3752 118.449 56.3977 116.986C56.4437 114.003 54.2682 113.86 52.4312 115.452Z" fill="#FFB703"/>
<path d="M89.7632 121.67C85.1317 124.877 82.5905 120.359 83.5173 116.505C84.2099 113.621 86.6714 112.086 89.6162 113.488C89.8055 113.578 89.8994 113.522 89.8977 113.319L89.8803 109.503C89.8803 109.413 89.9268 109.368 90.0198 109.368H91.3552C91.4598 109.368 91.5121 109.419 91.5121 109.52V122.341C91.5121 122.461 91.4498 122.522 91.3253 122.522H89.9874C89.9677 122.522 89.9481 122.518 89.93 122.51C89.9119 122.503 89.8957 122.491 89.8823 122.477C89.869 122.463 89.8588 122.447 89.8524 122.428C89.8461 122.41 89.8437 122.391 89.8454 122.372L89.9077 121.752C89.921 121.621 89.8728 121.594 89.7632 121.67ZM85.5328 120.313C86.2827 122.078 89.8803 121.199 89.8902 119.768C89.9002 118.214 89.8994 116.649 89.8877 115.074C89.8861 114.993 89.8487 114.934 89.7756 114.895C88.0367 113.976 85.8816 114.171 85.2812 116.297C84.8925 117.667 84.9764 119.005 85.5328 120.313Z" fill="#FFB703"/>
<path d="M135.175 121.668C134.546 122.049 133.988 122.475 133.299 122.637C126.499 124.225 127.395 109.886 135.087 113.513C135.107 113.523 135.129 113.527 135.151 113.526C135.173 113.525 135.194 113.519 135.213 113.508C135.231 113.497 135.246 113.481 135.257 113.463C135.268 113.444 135.273 113.423 135.273 113.402L135.258 109.554C135.258 109.43 135.322 109.368 135.451 109.368H136.738C136.843 109.368 136.896 109.418 136.896 109.518V122.381C136.896 122.463 136.854 122.503 136.771 122.502L135.348 122.499C135.325 122.499 135.303 122.494 135.283 122.485C135.262 122.475 135.244 122.461 135.231 122.444C135.217 122.427 135.207 122.407 135.202 122.386C135.197 122.364 135.197 122.342 135.203 122.321L135.343 121.786C135.348 121.765 135.347 121.744 135.339 121.724C135.331 121.703 135.318 121.686 135.3 121.673C135.282 121.661 135.261 121.654 135.238 121.653C135.216 121.652 135.194 121.657 135.175 121.668ZM130.601 116.378C129.862 119.251 131.11 123.251 135.042 120.405C135.112 120.354 135.169 120.288 135.208 120.213C135.247 120.137 135.268 120.054 135.268 119.969V115.039C135.268 114.968 135.235 114.916 135.17 114.884C133.349 113.993 131.165 114.181 130.601 116.378Z" fill="#FFB703"/>
<path d="M27.119 119.908C28.4388 116.245 20.725 118.133 20.2067 114.15C19.9286 112.035 21.6428 110.39 23.8727 110.159C25.3644 110.003 26.8594 110.238 28.3579 110.864C28.432 110.896 28.4708 110.949 28.4742 111.025L28.5475 112.734C28.5489 112.764 28.5404 112.795 28.5231 112.821C28.5058 112.848 28.4805 112.869 28.4504 112.882C28.4203 112.895 28.3868 112.899 28.3541 112.894C28.3214 112.889 28.291 112.875 28.2668 112.854C27.0229 111.78 23.7918 110.702 22.467 112.299C21.2029 113.824 22.467 115.018 24.0573 115.41C26.3201 115.969 29.215 116.314 29.0051 119.138C28.6865 123.434 23.2988 123.318 20.2017 121.81C20.1674 121.794 20.1386 121.769 20.1186 121.737C20.0985 121.706 20.0879 121.67 20.0879 121.633V119.856C20.0883 119.83 20.0969 119.804 20.1127 119.783C20.1284 119.761 20.1506 119.744 20.1764 119.734C20.2021 119.724 20.2303 119.722 20.2573 119.727C20.2843 119.732 20.309 119.745 20.3281 119.764C21.7566 121.137 26.1785 122.525 27.119 119.908Z" fill="#FFB703"/>
<path d="M37.8675 121.037C36.0716 123.819 31.5454 123.131 30.7212 119.696C29.9415 116.463 31.2223 112.708 35.1794 113.119C38.7526 113.489 39.4949 118.517 37.8675 121.037ZM32.7162 120.375C33.5521 121.512 35.2286 121.7 36.205 120.693C37.3383 119.53 37.5233 115.431 35.7742 114.761C33.6879 113.959 32.3556 115.07 32.1495 117.092C32.0395 118.153 32.0535 119.476 32.7162 120.375Z" fill="#FFB703"/>
<path d="M42.6321 114.228C43.2922 113.78 43.9258 113.274 44.7069 113.154C47.9667 112.652 48.3488 115.087 48.3561 117.753C48.3625 119.379 48.3609 121.006 48.3512 122.633C48.3512 122.717 48.3093 122.76 48.2255 122.76H46.9099C46.8019 122.76 46.7479 122.706 46.7479 122.598C46.7237 120.862 46.7132 119.131 46.7165 117.405C46.7181 116.397 46.652 115.733 46.5182 115.413C45.8266 113.776 43.6163 114.654 42.6054 115.648C42.5506 115.7 42.5232 115.764 42.5232 115.841L42.5426 122.611C42.5426 122.71 42.4942 122.76 42.3975 122.76H41.1086C40.9828 122.76 40.9199 122.696 40.9199 122.569V113.472C40.9199 113.397 40.9562 113.358 41.0287 113.355L42.2669 113.289C42.3089 113.287 42.3508 113.294 42.3896 113.311C42.4284 113.327 42.4631 113.352 42.4913 113.383C42.5195 113.415 42.5404 113.452 42.5526 113.493C42.5649 113.534 42.568 113.577 42.5619 113.619L42.4845 114.133C42.4822 114.151 42.485 114.17 42.4928 114.187C42.5005 114.204 42.5129 114.218 42.5283 114.228C42.5438 114.238 42.5618 114.243 42.5802 114.243C42.5985 114.244 42.6165 114.238 42.6321 114.228Z" fill="#FFB703"/>
<path d="M64.7097 122.702C58.3673 123.595 57.7907 113.884 63.2391 113.143C69.6171 112.278 70.1734 121.935 64.7097 122.702ZM61.4407 119.407C61.8624 121.184 64.283 121.992 65.614 120.828C67.0466 119.573 67.2574 115.105 64.8647 114.606C61.4128 113.886 60.9124 117.172 61.4407 119.407Z" fill="#FFB703"/>
<path d="M75.0203 120.069C74.9871 118.102 71.1635 119.12 70.3717 117.311C69.8107 116.035 69.8913 114.994 70.6135 114.188C71.9505 112.698 74.4964 112.906 76.2008 113.723C76.2319 113.738 76.2583 113.762 76.2767 113.791C76.2952 113.821 76.305 113.855 76.3051 113.89V115.318C76.3054 115.343 76.2988 115.367 76.286 115.388C76.2731 115.41 76.2546 115.427 76.2325 115.438C76.2104 115.449 76.1857 115.453 76.1612 115.45C76.1367 115.448 76.1135 115.438 76.0941 115.423C75.04 114.602 73.8817 114.335 72.619 114.622C71.0023 114.992 71.3484 116.567 72.8039 117.001C74.5817 117.53 77.0257 117.619 76.5777 120.331C76.0823 123.318 72.0974 123.108 70.0944 122.038C70.0491 122.013 70.0112 121.977 69.9845 121.933C69.9579 121.889 69.9434 121.839 69.9427 121.788L69.9355 120.307C69.9354 120.293 69.9392 120.279 69.9466 120.267C69.9539 120.255 69.9644 120.245 69.9769 120.239C69.9895 120.232 70.0036 120.23 70.0176 120.231C70.0317 120.232 70.0451 120.237 70.0564 120.245C71.2275 121.08 73.3254 121.928 74.5912 120.942C74.882 120.716 75.025 120.425 75.0203 120.069Z" fill="#FFB703"/>
<path d="M96.2388 122.63C92.0527 121.815 91.9527 114.839 95.7748 113.417C97.0856 112.929 98.3691 112.984 99.6252 113.583C101.643 114.543 102.145 117.054 101.85 119.005C101.44 121.717 99.2945 123.228 96.2388 122.63ZM98.3998 114.695C93.8163 113.336 93.7164 120.916 96.8823 121.326C101.104 121.874 101.138 115.506 98.3998 114.695Z" fill="#FFB703"/>
<path d="M125.31 121.637C124.446 122.149 123.878 122.449 123.605 122.536C121.077 123.34 118.932 121.893 119.044 119.532C119.181 116.688 122.598 116.593 125.283 116.372C125.369 116.366 125.414 116.325 125.42 116.249C125.637 113.745 121.596 114.488 120.033 114.956C120.012 114.962 119.989 114.964 119.967 114.961C119.945 114.958 119.923 114.95 119.905 114.937C119.887 114.925 119.873 114.909 119.863 114.891C119.853 114.873 119.849 114.852 119.849 114.832L119.886 113.632C119.89 113.546 119.938 113.492 120.03 113.47C122.026 112.984 125.758 112.623 126.817 114.602C127.036 115.012 127.144 115.707 127.143 116.688C127.139 118.565 127.166 120.436 127.224 122.301C127.225 122.326 127.22 122.35 127.21 122.373C127.2 122.395 127.186 122.416 127.167 122.433C127.148 122.451 127.125 122.465 127.101 122.474C127.076 122.484 127.049 122.489 127.022 122.489H125.543C125.519 122.489 125.496 122.484 125.474 122.476C125.452 122.467 125.433 122.454 125.417 122.438C125.401 122.422 125.389 122.403 125.382 122.382C125.375 122.361 125.372 122.339 125.375 122.318L125.449 121.715C125.462 121.6 125.416 121.574 125.31 121.637ZM121.565 121.079C122.85 121.729 124.208 121.124 125.359 120.268C125.428 120.217 125.461 120.152 125.459 120.073L125.422 117.701C125.421 117.612 125.371 117.569 125.273 117.573C123.534 117.648 120.741 117.713 120.843 119.929C120.87 120.466 121.11 120.85 121.565 121.079Z" fill="#FFB703"/>
<path d="M139.981 121.776C137.948 120.073 137.856 116.142 139.702 114.302C141.049 112.956 143.301 112.757 145.004 113.566C147.401 114.706 147.795 118.214 146.808 120.321C145.74 122.606 142.263 123.687 139.981 121.776ZM141.208 120.756C142.723 121.797 144.559 121.386 145.234 119.765C145.934 118.081 145.773 114.711 143.173 114.496C139.648 114.203 139.293 119.444 141.208 120.756Z" fill="#FFB703"/>
<path d="M153.703 120.108C153.777 117.742 147.713 119.549 148.137 115.69C148.474 112.641 152.603 112.713 154.964 113.684C155.038 113.714 155.077 113.766 155.08 113.839L155.146 115.307C155.146 115.327 155.141 115.347 155.13 115.364C155.119 115.381 155.103 115.395 155.083 115.405C155.064 115.414 155.042 115.418 155.02 115.417C154.998 115.416 154.977 115.409 154.959 115.398C153.898 114.683 149.77 113.562 149.891 115.897C149.962 117.306 153.69 117.142 154.79 118.12C155.915 119.123 155.578 120.939 154.601 121.776C152.95 123.188 150.101 122.921 148.164 121.974C148.132 121.959 148.105 121.936 148.087 121.908C148.068 121.881 148.058 121.849 148.058 121.817L148.056 120.358C148.054 120.244 148.108 120.216 148.219 120.275C149.585 121 150.894 121.56 152.526 121.243C153.176 121.119 153.682 120.748 153.703 120.108Z" fill="#FFB703"/>
<path d="M109.646 121.597C106.532 123.796 103.472 122.828 103.434 119.1C103.414 117.206 103.411 115.263 103.423 113.271C103.423 113.149 103.491 113.088 103.627 113.088H105.029C105.125 113.088 105.173 113.131 105.173 113.217C105.159 115.294 105.156 117.367 105.165 119.437C105.181 122.284 108.411 121.299 109.751 120.156C109.784 120.128 109.81 120.094 109.828 120.056C109.846 120.018 109.855 119.977 109.855 119.936V113.21C109.855 113.129 109.9 113.088 109.989 113.088H111.431C111.542 113.088 111.597 113.139 111.597 113.242L111.6 122.362C111.6 122.45 111.552 122.494 111.455 122.494H109.971C109.943 122.494 109.916 122.488 109.892 122.477C109.867 122.466 109.846 122.45 109.829 122.431C109.812 122.412 109.8 122.389 109.794 122.365C109.788 122.34 109.788 122.315 109.794 122.291L109.922 121.758C109.93 121.726 109.927 121.693 109.914 121.663C109.9 121.633 109.877 121.607 109.846 121.589C109.816 121.572 109.781 121.563 109.745 121.564C109.709 121.566 109.675 121.577 109.646 121.597Z" fill="#FFB703"/>
<path d="M115.651 114.346C116.736 113.5 117.573 112.943 118.923 113.121C119.003 113.131 119.042 113.177 119.04 113.259L119.017 114.66C119.016 114.767 118.963 114.815 118.858 114.803C117.633 114.681 116.56 115.009 115.639 115.788C115.564 115.849 115.526 115.93 115.526 116.029V122.634C115.526 122.718 115.485 122.76 115.401 122.76H114.037C113.919 122.76 113.859 122.7 113.857 122.582L113.832 113.254C113.832 113.147 113.885 113.094 113.992 113.094H115.339C115.464 113.094 115.526 113.156 115.526 113.282V114.284C115.526 114.391 115.568 114.412 115.651 114.346Z" fill="#FFB703"/>
</svg>
